<?xml version="1.0" encoding="UTF-8"?>
<svg id="Camada_1" data-name="Camada 1" xmlns="http://www.w3.org/2000/svg" viewBox="0 0 1190.55 841.89">
  <defs>
    <style>
      .cls-1 {
        fill: #6d6e71;
      }

      .cls-1, .cls-2 {
        stroke-width: 0px;
      }

      .cls-2 {
        fill: #d25472;
      }
    </style>
  </defs>
  <g id="COR_2" data-name="COR 2">
    <g>
      <path class="cls-2" d="m597.26,277.37c-2.55-1.09-3.82-2.55-3.82-4.37,3.64-34.79,14.21-112.39,31.7-232.79,2.37-1.46,4.55-2.18,6.56-2.18h30.6c2.37,0,4.19-.37,5.47-1.09l6.56,1.09h65.57c5.1,0,7.65,3.28,7.65,9.84v60.11c0,5.28-.37,9.29-1.09,12.02.72,4.74,1.09,9.47,1.09,14.21v65.57c0,4.92-.37,9.29-1.09,13.12.72,3.82,1.09,8.19,1.09,13.11v39.34c0,4.74-.37,9.47-1.09,14.21.72,2.55,1.09,6.56,1.09,12.02,0,9.47-.37,16.76-1.09,21.86.72,7.65,1.09,16.03,1.09,25.14,0,8.38-.37,18.22-1.09,29.51.72,5.65,1.09,11.84,1.09,18.58-.55,5.83-3.46,8.74-8.75,8.74h-61.2c-5.83,0-8.74-2.91-8.74-8.74,0-4.19.36-10.02,1.09-17.49l-1.09-13.11c0-.91.36-4.55,1.09-10.93l-1.09-6.56c.72-8.2,1.09-15.48,1.09-21.86,0-8.56-.37-15.48-1.09-20.76.91-30.06,2-49,3.28-56.83-1.46-4.73-2.19-7.65-2.19-8.75l1.09-4.37c-.73-1.27-1.09-3.1-1.09-5.47l2.46-1.64-.82-4.37-.82-7.1-9.84.27c.18,1.46.28,2.83.28,4.1,0,.55-1.28,1.46-3.83,2.73l-.55,7.38c.36,0,.72-.09,1.09-.27l3.28,4.37c-2.19,27.69-5.83,55.38-10.93,83.06-4.01,56.83-8.02,85.25-12.02,85.25-6.19.73-11.3,1.09-15.3,1.09h-79.78c-7.29,0-10.93-8.38-10.93-25.14-5.1-35.34-8.74-65.21-10.93-89.62l1.09-5.47c-4.37-23.31-6.56-36.07-6.56-38.25l1.09-7.65c-1.46-2.36-2.18-4.55-2.18-6.56v-2.19h1.09l5.47,1.09c.18-.18.36-.45.55-.82l-5.19-11.2-5.74-2.73-6.56,5.74-.27,9.56c.55.19,1.18.37,1.91.55v2.19c0,4.19-.37,10.02-1.09,17.49l1.09,6.56c-1.46,2.73-2.19,5.65-2.19,8.74,1.46,4.74,2.19,8.02,2.19,9.84v9.84c0,7.65.36,13.85,1.09,18.58-.73,5.65-1.09,11.84-1.09,18.58,0,7.65.36,21.49,1.09,41.53l-1.09,5.46c.73,4.74,1.09,9.47,1.09,14.21v10.93c0,5.83-2.91,8.74-8.74,8.74h-61.2c-5.83,0-8.75-2.91-8.75-8.74v-15.3c0-14.94.37-25.5,1.09-31.7-.73-8.38-1.09-19.31-1.09-32.79v-14.21c0-4,.37-9.11,1.09-15.3-.73-1.27-1.09-2.73-1.09-4.37,0-2.18.37-3.28,1.09-3.28-.73-7.28-1.09-12.75-1.09-16.39v-121.32c0-5.83.37-13.48,1.09-22.95-.73-1.27-1.09-3.1-1.09-5.47,0-2.55.37-5.83,1.09-9.84-.73-11.84-1.09-22.41-1.09-31.7v-13.11c0-5.65,1.82-9.29,5.47-10.93h6.56c22.04,0,37.71-.37,46.99-1.09,13.12.73,29.51,1.09,49.18,1.09h10.93c3.83,0,6.74,13.11,8.75,39.34l28.14,205.2,2.73,4.92,3.82-1.09,3.28-4.1,3-4.92Z"/>
      <path class="cls-2" d="m41.5,772.57l10.93,1.09h3.28c15.67,0,206.2-.36,219.68-1.09,6.38.73,171.17,1.09,175.73,1.09,1.64,0,3.1-.36,4.37-1.09,4.92.73,8.92,1.09,12.02,1.09,9.11,0,20.4-.36,33.88-1.09,3.28,0,5.83,2.19,7.65,6.56v15.73c0,5.83-3.64,8.74-10.93,8.74h-26.23c-16.21,0-187.2-.36-194.31-1.09-7.1.73-194.73,1.09-210.93,1.09h-22.95c-5.83,0-8.74-2.91-8.74-8.74v-11.36c0-5.83,2.19-9.47,6.56-10.93Z"/>
    </g>
  </g>
  <g id="COR_1" data-name="COR 1">
    <g>
      <path class="cls-1" d="m103.8,36.92l15.3,1.09,6.56-1.09c44.26.55,68.67,3.1,73.23,7.65,16.03,10.93,24.04,26.23,24.04,45.9v62.3c0,5.83-2.19,9.47-6.56,10.93l-7.65-1.09h-22.95c-2.37,0-4.19.37-5.47,1.09l-6.56-1.09h-27.32c-1.09,0-2.55-1.46-4.37-4.37v-16.39c0-3.09-.37-6.01-1.09-8.74.72-2.91,1.09-5.83,1.09-8.74v-10.93c0-3.64-1.46-5.83-4.37-6.56-14.58.37-21.86,2.19-21.86,5.46v20.77c0,3.1.37,7.1,1.09,12.02-.73,1.46-1.46,5.47-2.19,12.02,1.46,5.47,2.19,10.57,2.19,15.3v5.47c1.27,2.92,3.82,4.37,7.65,4.37h15.3c3.09,0,6.01-.37,8.74-1.09,2.91.73,5.47,1.09,7.65,1.09l15.3-1.09c14.03,2.01,24.95,6.01,32.79,12.02,12.39,11.3,18.58,27.69,18.58,49.18v33.88c0,4.92-.37,9.29-1.09,13.11.72,3.83,1.09,8.2,1.09,13.11v19.67c0,35.7-6.19,56.47-18.58,62.3-8.56,7.29-21.68,10.93-39.34,10.93h-33.88c-4.92,0-9.29-.36-13.11-1.09-3.82.73-8.2,1.09-13.11,1.09h-14.21c-25.51,0-42.62-9.84-51.37-29.51-2.92-6.92-4.37-23.32-4.37-49.18,0-2.18.36-4.73,1.09-7.65-.73-4.73-1.09-9.47-1.09-14.21v-14.21c0-6.56,2.55-9.84,7.65-9.84h25.14c3.09,0,6.01-.37,8.74-1.09,2.91.73,5.83,1.09,8.74,1.09h26.23c1.09,0,2.55,1.46,4.37,4.37v9.84c0,3.82.37,7.1,1.09,9.84-.73,3.82-1.09,7.47-1.09,10.93v15.3c1.09,3.64,5.83,5.47,14.21,5.47h4.37c5.83,0,8.74-5.1,8.74-15.3l-1.09-7.65v-17.48c0-6.19-.37-12.75-1.09-19.67.72-2.91,1.09-5.83,1.09-8.75-1.46-3.28-2.92-5.1-4.37-5.46h-3.28c-12.94,0-21.31-.73-25.14-2.19-4.01.73-7.29,1.09-9.84,1.09h-9.84c-26.6,0-43.36-11.29-50.27-33.88-2.19-4.55-3.65-12.57-4.37-24.04,0-5.47.36-9.47,1.09-12.02-.73-10.93-1.09-20.04-1.09-27.32v-37.16c0-4.73.36-9.47,1.09-14.21-.73-2.55-1.09-6.19-1.09-10.93,0-24.77,10.2-41.17,30.6-49.18,11.11-3.64,23.86-5.46,38.25-5.46Z"/>
      <path class="cls-1" d="m330.04,36.92c41.53,0,62.29,19.67,62.29,59.02v17.48c0,13.48-.37,24.41-1.09,32.79.73,6.19,1.09,16.76,1.09,31.7v7.65c0,5.29-.37,9.29-1.09,12.02.73,4.74,1.09,9.47,1.09,14.21v51.37c0,25.68-9.47,42.44-28.42,50.28-8.02,3.64-21.49,5.46-40.44,5.46l-4.37-1.09c-5.1.73-9.47,1.09-13.11,1.09-24.41,0-40.81-10.93-49.18-32.79-2.19-8.75-3.28-16.76-3.28-24.05v-9.84c0-8.92.36-14.39,1.09-16.39-.73-8.2-1.09-15.48-1.09-21.86v-80.88c0-7.28.36-16.39,1.09-27.32-.73-1.82-1.09-7.65-1.09-17.49,0-17.49,8.01-32.06,24.04-43.72,12.75-5.1,30.24-7.65,52.46-7.65Zm-69.95,314.76l10.93,1.09h3.28c15.67,0,30.24-.36,43.72-1.09,6.38.73,11.84,1.09,16.39,1.09,1.64,0,3.1-.36,4.37-1.09,4.92.73,8.92,1.09,12.02,1.09,9.11,0,20.4-.36,33.88-1.09,3.28,0,5.83,2.19,7.65,6.56,0,1.64-.37,5.65-1.09,12.02.73,7.29,1.09,12.75,1.09,16.39,0,5.83-3.64,8.74-10.93,8.74h-26.23c-16.21,0-27.87-.36-34.98-1.09-7.1.73-18.76,1.09-34.97,1.09h-22.95c-5.83,0-8.74-2.91-8.74-8.74v-24.05c0-5.83,2.19-9.47,6.56-10.93Zm36.07-263.4v43.72c0,6.38.36,13.66,1.09,21.86,0,.73-.37,1.82-1.09,3.28.72,17.86,1.09,32.06,1.09,42.62v34.98c0,9.11-.37,20.4-1.09,33.88,0,3.28,2.19,5.83,6.56,7.65l17.49-1.09c1.82,0,4.73.37,8.75,1.09,3.82-.72,8.2-1.09,13.11-1.09h2.19c3.64,0,5.46-6.19,5.46-18.58,0-9.66-.37-22.04-1.09-37.16.73-6.37,1.09-10.38,1.09-12.02-.73-6.37-1.09-10.38-1.09-12.02.73-10.93,1.09-18.94,1.09-24.05l-1.09-10.93c.73-6.19,1.09-11.29,1.09-15.3s-.37-9.1-1.09-15.3c.73-5.28,1.09-12.2,1.09-20.76,0-2.19-.37-4.73-1.09-7.65.73-2.91,1.09-5.83,1.09-8.74v-3.28c0-5.83-2.91-8.74-8.74-8.74h-5.47c-6.74,0-16.21.37-28.42,1.09-1.46-.73-2.55-1.09-3.28-1.09-5.1.55-7.65,3.1-7.65,7.65Z"/>
      <path class="cls-1" d="m860.11,36.92c41.53,0,62.29,19.67,62.29,59.02v17.48c0,13.48-.37,24.41-1.09,32.79.73,6.19,1.09,16.76,1.09,31.7v7.65c0,5.29-.37,9.29-1.09,12.02.73,4.74,1.09,9.47,1.09,14.21v51.37c0,25.68-9.47,42.44-28.42,50.28-8.02,3.64-21.49,5.46-40.44,5.46l-4.37-1.09c-5.1.73-9.47,1.09-13.11,1.09-24.41,0-40.81-10.93-49.18-32.79-2.19-8.75-3.28-16.76-3.28-24.05v-9.84c0-8.92.36-14.39,1.09-16.39-.73-8.2-1.09-15.48-1.09-21.86v-80.88c0-7.28.36-16.39,1.09-27.32-.73-1.82-1.09-7.65-1.09-17.49,0-17.49,8.01-32.06,24.04-43.72,12.75-5.1,30.24-7.65,52.46-7.65Zm-69.95,314.76l10.93,1.09h3.28c15.67,0,30.24-.36,43.72-1.09,6.38.73,11.84,1.09,16.39,1.09,1.64,0,3.1-.36,4.37-1.09,4.92.73,8.92,1.09,12.02,1.09,9.11,0,20.4-.36,33.88-1.09,3.28,0,5.83,2.19,7.65,6.56,0,1.64-.37,5.65-1.09,12.02.73,7.29,1.09,12.75,1.09,16.39,0,5.83-3.64,8.74-10.93,8.74h-26.23c-16.21,0-27.87-.36-34.98-1.09-7.1.73-18.76,1.09-34.97,1.09h-22.95c-5.83,0-8.74-2.91-8.74-8.74v-24.05c0-5.83,2.19-9.47,6.56-10.93Zm36.07-263.4v43.72c0,6.38.36,13.66,1.09,21.86,0,.73-.37,1.82-1.09,3.28.72,17.86,1.09,32.06,1.09,42.62v34.98c0,9.11-.37,20.4-1.09,33.88,0,3.28,2.19,5.83,6.56,7.65l17.49-1.09c1.82,0,4.73.37,8.75,1.09,3.82-.72,8.2-1.09,13.11-1.09h2.19c3.64,0,5.46-6.19,5.46-18.58,0-9.66-.37-22.04-1.09-37.16.73-6.37,1.09-10.38,1.09-12.02-.73-6.37-1.09-10.38-1.09-12.02.73-10.93,1.09-18.94,1.09-24.05l-1.09-10.93c.73-6.19,1.09-11.29,1.09-15.3s-.37-9.1-1.09-15.3c.73-5.28,1.09-12.2,1.09-20.76,0-2.19-.37-4.73-1.09-7.65.73-2.91,1.09-5.83,1.09-8.74v-3.28c0-5.83-2.91-8.74-8.74-8.74h-5.47c-6.74,0-16.21.37-28.42,1.09-1.46-.73-2.55-1.09-3.28-1.09-5.1.55-7.65,3.1-7.65,7.65Z"/>
      <path class="cls-1" d="m1072.14,36.92l-15.3,1.09-6.56-1.09c-44.26.55-68.67,3.1-73.23,7.65-16.03,10.93-24.04,26.23-24.04,45.9v62.3c0,5.83,2.19,9.47,6.56,10.93l7.65-1.09h22.95c2.37,0,4.19.37,5.47,1.09l6.56-1.09h27.32c1.09,0,2.55-1.46,4.37-4.37v-16.39c0-3.09.37-6.01,1.09-8.74-.72-2.91-1.09-5.83-1.09-8.74v-10.93c0-3.64,1.46-5.83,4.37-6.56,14.58.37,21.86,2.19,21.86,5.46v20.77c0,3.1-.37,7.1-1.09,12.02.73,1.46,1.46,5.47,2.19,12.02-1.46,5.47-2.19,10.57-2.19,15.3v5.47c-1.27,2.92-3.82,4.37-7.65,4.37h-15.3c-3.09,0-6.01-.37-8.74-1.09-2.91.73-5.47,1.09-7.65,1.09l-15.3-1.09c-14.03,2.01-24.95,6.01-32.79,12.02-12.39,11.3-18.58,27.69-18.58,49.18v33.88c0,4.92.37,9.29,1.09,13.11-.72,3.83-1.09,8.2-1.09,13.11v19.67c0,35.7,6.19,56.47,18.58,62.3,8.56,7.29,21.68,10.93,39.34,10.93h33.88c4.92,0,9.29-.36,13.11-1.09,3.82.73,8.2,1.09,13.11,1.09h14.21c25.51,0,42.62-9.84,51.37-29.51,2.92-6.92,4.37-23.32,4.37-49.18,0-2.18-.36-4.73-1.09-7.65.73-4.73,1.09-9.47,1.09-14.21v-14.21c0-6.56-2.55-9.84-7.65-9.84h-25.14c-3.09,0-6.01-.37-8.74-1.09-2.91.73-5.83,1.09-8.74,1.09h-26.23c-1.09,0-2.55,1.46-4.37,4.37v9.84c0,3.82-.37,7.1-1.09,9.84.73,3.82,1.09,7.47,1.09,10.93v15.3c-1.09,3.64-5.83,5.47-14.21,5.47h-4.37c-5.83,0-8.74-5.1-8.74-15.3l1.09-7.65v-17.48c0-6.19.37-12.75,1.09-19.67-.72-2.91-1.09-5.83-1.09-8.75,1.46-3.28,2.92-5.1,4.37-5.46h3.28c12.94,0,21.31-.73,25.14-2.19,4.01.73,7.29,1.09,9.84,1.09h9.84c26.6,0,43.36-11.29,50.27-33.88,2.19-4.55,3.65-12.57,4.37-24.04,0-5.47-.36-9.47-1.09-12.02.73-10.93,1.09-20.04,1.09-27.32v-37.16c0-4.73-.36-9.47-1.09-14.21.73-2.55,1.09-6.19,1.09-10.93,0-24.77-10.2-41.17-30.6-49.18-11.11-3.64-23.86-5.46-38.25-5.46Z"/>
      <path class="cls-1" d="m633.45,445.12c2.6.73,5.82,1.09,9.64,1.09h12.02c2.55,0,5.89-.36,10.03-1.09,4.37,0,6.4,2.91,6.11,8.74l-3.86,21.86c-1.29,7.29-5.57,10.93-12.85,10.93h-15.3c-4.37,0-6.95,2.19-7.71,6.56l-1.93,10.93c-.87,4.91-2,9.29-3.4,13.11.05,3.82-.23,7.47-.84,10.93-1.7,9.66-3.48,17.67-5.33,24.04-.88,9.11-2.5,20.4-4.88,33.88-1.16,6.56-2.1,9.84-2.83,9.84-.56,7.28-1.16,12.75-1.8,16.39l-32.18,182.52c-1.03,5.83-4.46,8.74-10.28,8.74h-17.49c-4.01,0-6.6-1.82-7.78-5.47l47.41-268.86c.45-2.55.66-5.83.64-9.84.89-.91,1.7-3.46,2.44-7.65l3.66-20.77c.19-1.09-1.01-2.55-3.6-4.37h-17.49c-7.29,0-10.29-3.64-9-10.93l3.47-19.67c1.16-6.56,4.29-9.84,9.38-9.84h42.63c3.46,0,7.17-.36,11.12-1.09Z"/>
      <path class="cls-1" d="m739.28,446.21h5.46c34.98,0,49.12,18.95,42.44,56.83l-1.35,7.65c-1.25,7.1-2.26,10.75-3.02,10.93-.37,6.19-.9,11.29-1.61,15.3l-18.5,104.92c-1.03,5.83-4.46,8.74-10.28,8.74h-14.21c-9.11,0-17.42-.36-24.94-1.09-3.96.73-11.31,1.09-22.06,1.09-1.09,0-2.81,1.46-5.14,4.38l-1.35,7.65c-.42,2.37-.37,4.2.13,5.47l-2.06,5.47-1.61,15.3-3.4,13.11-.26,7.65c-1.4,3.83-2.15,6.01-2.25,6.56-1.04,10.02-1.77,16.21-2.18,18.58-2.33,9.11-3.54,13.85-3.6,14.21-.27,5.65-1,11.84-2.18,18.58,1.93,1.46,4.35,2.19,7.27,2.19l6.75-1.1c2.78.73,5.27,1.1,7.46,1.1,9.47,0,14.72-2.91,15.75-8.75.71-4,1.04-8.01,1.03-12.02.22-1.27,1.36-5.65,3.4-13.11,2.19-16.57,4.02-28.96,5.46-37.16,2.23-4.37,5.53-6.56,9.9-6.56h20.77c5.83,0,8.23,2.92,7.2,8.75l-7.9,44.81c-6.81,38.62-27.34,57.93-61.58,57.93h-7.65c-34.97,0-49.18-18.58-42.63-55.74.9-5.1,1.77-8.01,2.64-8.75,1.07-10.2,2.25-18.94,3.53-26.23l10.6-60.11c.71-4,1.97-9.1,3.79-15.3-.63-.55-.42-3.82.64-9.84,1.25-7.11,2.26-10.75,3.02-10.93.68-8.01,1.54-14.93,2.57-20.76l16.38-92.9c6.68-37.88,27.87-56.83,63.57-56.83Zm-16,34.98c-3.64,0-5.85,2.19-6.62,6.56-1.29,7.29-3.26,16.39-5.91,27.32l.32,4.38c-.29,1.64-.91,3.1-1.86,4.37-1.42,12.21-2.73,21.68-3.92,28.42-1.29,7.29-3.25,16.4-5.91,27.32l.13,5.47c-1.72,5.65-3.18,11.84-4.37,18.58l-1.16,6.56c-.77,4.37.54,7.28,3.92,8.74,9.6-.72,17.31-1.09,23.14-1.09h5.47c.72,0,2.07-1.46,4.05-4.37l.06-6.56c3.46-15.48,5.43-24.59,5.91-27.33.84-4.73,1.56-10.93,2.18-18.58,1.72-5.65,3.63-14.39,5.72-26.23l.58-3.28.06-6.56,1.48-2.19c1.42-12.2,2.73-21.67,3.92-28.42l.39-2.18c.29-1.64.91-3.1,1.86-4.37-.2-5.1-1.57-7.65-4.12-7.65-11.6.73-20.05,1.09-25.33,1.09Z"/>
      <path class="cls-1" d="m890.29,445.12l10.73,1.09h40.44c23.68,0,38.34,9.84,43.98,29.51,1.4,8.57,1.19,18.04-.64,28.42l-.96,5.47c-.93,5.28-2,9.29-3.21,12.02-.11,4.74-.58,9.47-1.42,14.21l-6.74,38.25c-1.29,7.29-5.57,10.93-12.86,10.93h-34.97c-7.29,0-10.29-3.64-9-10.93,1.48-8.37,3.19-16.03,5.14-22.95l.64-9.84c2.72-11.29,5.14-22.95,7.26-34.97.19-1.1-1.37-2.55-4.69-4.37l-10.03,1.09c-3.64,0-15.24-.36-34.78-1.09-1.09,0-3.17,1.46-6.24,4.37l-1.48,20.77c-.13.73-.69,1.82-1.67,3.28-.69,8.02-1.54,14.94-2.57,20.77-1.19,6.74-3.23,16.21-6.1,28.41l-.25,7.65c-.51,2.92-1.14,4.37-1.86,4.37-1.65,13.48-3.02,23.32-4.11,29.51l-16.38,92.9c-1.29,7.28-3.2,16.03-5.72,26.23-.9,5.1,4.84,7.65,17.23,7.65,9.23-.73,14.76-1.09,16.59-1.09,7.16.73,12.55,1.09,16.2,1.09,2.7-2.91,4.17-5.1,4.43-6.56,4.7-30.78,8.38-53.73,11.05-68.85.8-4.55,4.17-7.1,10.1-7.65h39.34c5.83,0,8.23,2.91,7.2,8.74l-11.95,67.76c-5.62,31.88-18.86,51.19-39.72,57.93-9.44,2.91-16.26,4.37-20.44,4.37-4.74,0-9.41-.36-14.02-1.09-7.05.73-14.04,1.09-20.96,1.09-2.55,0-5.77-.36-9.64-1.09-3.95.73-8.39,1.09-13.31,1.09h-3.28c-37.16,0-52.34-19.31-45.53-57.93l3.66-20.77c1.8-10.2,4.6-24.04,8.42-41.53-.22-2.91-.13-5.46.25-7.65.1-.55.85-2.73,2.25-6.56.78-8.56,1.51-14.76,2.18-18.58.58-3.28,1.33-5.46,2.25-6.56.36-6.19.9-11.29,1.6-15.3l6.94-39.34c1.61-9.1,3.45-17.49,5.53-25.14-.06-3.82.8-10.74,2.57-20.76,1.29-7.28,3.25-16.39,5.91-27.32.39-6.37.99-11.84,1.8-16.39,4.21-23.86,16.93-40.26,38.18-49.18,5.48-2.19,16.37-4,32.66-5.47Z"/>
      <path class="cls-1" d="m1041.11,445.12c16.76,0,24.68,2.55,23.79,7.65-.74,4.19-1.55,6.74-2.44,7.65-.94,9.47-1.93,17.12-2.95,22.95l-1.73,9.84c-2.54,14.39-4.64,24.23-6.3,29.51-.72,8.2-2.21,18.77-4.49,31.7l-2.12,12.02c-1.45,8.2-3.67,18.76-6.68,31.7.87,4.37,3.03,6.56,6.5,6.56,1.64,0,3.16-.36,4.56-1.1,4.79.73,8.73,1.1,11.83,1.1,8.74,0,13.56-2.55,14.47-7.65.35-2,2-9.29,4.95-21.86.32-1.82.47-4.73.45-8.74.39-2.19,1.2-4.74,2.44-7.65,4.21-28.05,7.7-49.91,10.47-65.58l6.55-37.16c1.29-7.28,4.84-10.93,10.67-10.93,17.49,0,25.84,2.19,25.07,6.56l-60.51,343.18c-1.03,5.83-4.46,8.74-10.28,8.74h-15.3c-7.29,0-10.16-4.37-8.62-13.11l2.7-15.3c1.38-7.83,2.84-14.02,4.37-18.58.2-5.28,1.06-12.2,2.57-20.76,2.31-13.11,4.8-25.14,7.45-36.07.81-8.74,1.6-15.3,2.38-19.67,3.29-14.57,5.59-25.5,6.87-32.79.66-5.83-1.01-8.75-5.02-8.75-15.61.73-24.78,1.1-27.51,1.1-3.47,3.1-5.56,6.74-6.3,10.93-.41,2.37-.37,4.19.13,5.47l-2.25,6.56c-2.39,17.67-4.4,31.15-6.04,40.44-1.6,9.11-3.13,15.67-4.56,19.67-.62,7.65-1.73,16.03-3.34,25.14l-3.47,19.67c-1.29,7.28-3.19,16.03-5.72,26.23.47,1.46.64,2.55.51,3.28-2.23,4.37-5.53,6.56-9.9,6.56h-17.49c-5.83,0-8.23-2.91-7.2-8.74l10.98-62.3c1.48-8.38,2.87-14.21,4.18-17.49.49-6.92,1.35-13.84,2.57-20.76l21.2-120.23c.71-4,1.97-9.1,3.79-15.3-.7-.18-.42-3.82.83-10.93l.96-5.47c1.25-7.1,2.26-10.75,3.02-10.93.36-6.19.9-11.29,1.6-15.3l10.6-60.11c1.29-7.28,5.21-10.93,11.77-10.93Z"/>
      <path class="cls-1" d="m1124.17,761.25h21.86c7.28,0,10.41,2.92,9.39,8.75l-4.63,26.23c-1.03,5.83-4.46,8.74-10.28,8.74h-24.05c-7.29,0-10.28-3.64-9-10.93l3.85-21.86c1.29-7.28,5.57-10.93,12.86-10.93Z"/>
    </g>
  </g>
</svg>